<svg width="40" height="41" viewBox="0 0 40 41" fill="none" xmlns="http://www.w3.org/2000/svg">
<g clip-path="url(#clip0_2002_9759)">
<path d="M20 28.1047C19.45 28.1047 18.9792 27.9089 18.5875 27.5172C18.1958 27.1256 18 26.6547 18 26.1047C18 25.5547 18.1958 25.0839 18.5875 24.6922C18.9792 24.3006 19.45 24.1047 20 24.1047C20.55 24.1047 21.0208 24.3006 21.4125 24.6922C21.8042 25.0839 22 25.5547 22 26.1047C22 26.6547 21.8042 27.1256 21.4125 27.5172C21.0208 27.9089 20.55 28.1047 20 28.1047ZM20 22.1047C19.45 22.1047 18.9792 21.9089 18.5875 21.5172C18.1958 21.1256 18 20.6547 18 20.1047C18 19.5547 18.1958 19.0839 18.5875 18.6922C18.9792 18.3006 19.45 18.1047 20 18.1047C20.55 18.1047 21.0208 18.3006 21.4125 18.6922C21.8042 19.0839 22 19.5547 22 20.1047C22 20.6547 21.8042 21.1256 21.4125 21.5172C21.0208 21.9089 20.55 22.1047 20 22.1047ZM20 16.1047C19.45 16.1047 18.9792 15.9089 18.5875 15.5172C18.1958 15.1256 18 14.6547 18 14.1047C18 13.5547 18.1958 13.0839 18.5875 12.6922C18.9792 12.3006 19.45 12.1047 20 12.1047C20.55 12.1047 21.0208 12.3006 21.4125 12.6922C21.8042 13.0839 22 13.5547 22 14.1047C22 14.6547 21.8042 15.1256 21.4125 15.5172C21.0208 15.9089 20.55 16.1047 20 16.1047Z" fill="#49454F"/>
</g>
<defs>
<clipPath id="clip0_2002_9759">
<rect y="0.104736" width="40" height="40" rx="20" fill="white"/>
</clipPath>
</defs>
</svg>
